<svg width="24" height="24" viewBox="0 0 24 24" fill="none" xmlns="http://www.w3.org/2000/svg">
<path d="M9.46154 19.2892C4.84615 20.6446 4.84615 17.0302 3 16.5783M15.9231 22V18.503C15.9577 18.0722 15.8982 17.639 15.7486 17.2324C15.599 16.8257 15.3627 16.4549 15.0554 16.1446C17.9538 15.8284 21 14.7531 21 9.81935C20.9998 8.55776 20.504 7.34454 19.6154 6.43082C20.0362 5.32706 20.0064 4.10705 19.5323 3.02421C19.5323 3.02421 18.4431 2.70795 15.9231 4.36155C13.8074 3.80025 11.5772 3.80025 9.46154 4.36155C6.94154 2.70795 5.85231 3.02421 5.85231 3.02421C5.37819 4.10705 5.34844 5.32706 5.76923 6.43082C4.87396 7.35132 4.37771 8.5755 4.38462 9.84646C4.38462 14.744 7.43077 15.8193 10.3292 16.1717C10.0255 16.4789 9.79132 16.8453 9.64182 17.2469C9.49233 17.6486 9.4309 18.0766 9.46154 18.503V22" stroke="#14181F" stroke-width="2" stroke-linecap="round" stroke-linejoin="round" fill="#171515"/>
</svg>
